<svg height="10798" width="720" xmlns="http://www.w3.org/2000/svg">
<rect height="10798" fill="#555" width="720"></rect>
<text fill="#7f7" font-family="Courier New" font-size="12" xml:space="preserve">
<tspan x="10" y="26">131 megabytes installed</tspan>
<tspan x="10" y="42"></tspan>
<tspan x="10" y="58">node_modules</tspan>
<tspan x="10" y="74">└─┬ nodebb@1.4.0 </tspan>
<tspan x="10" y="90">  ├── async@1.5.2 </tspan>
<tspan x="10" y="106">  ├─┬ autoprefixer@6.7.7 </tspan>
<tspan x="10" y="122">  │ ├─┬ browserslist@1.7.7 </tspan>
<tspan x="10" y="138">  │ │ └── electron-to-chromium@1.3.8 </tspan>
<tspan x="10" y="154">  │ ├── caniuse-db@1.0.30000660 </tspan>
<tspan x="10" y="170">  │ ├── normalize-range@0.1.2 </tspan>
<tspan x="10" y="186">  │ ├── num2fraction@1.2.2 </tspan>
<tspan x="10" y="202">  │ └── postcss-value-parser@3.3.0 </tspan>
<tspan x="10" y="218">  ├── bcryptjs@2.3.0 </tspan>
<tspan x="10" y="234">  ├─┬ body-parser@1.17.1 </tspan>
<tspan x="10" y="250">  │ ├── bytes@2.4.0 </tspan>
<tspan x="10" y="266">  │ ├── content-type@1.0.2 </tspan>
<tspan x="10" y="282">  │ ├─┬ debug@2.6.1 </tspan>
<tspan x="10" y="298">  │ │ └── ms@0.7.2 </tspan>
<tspan x="10" y="314">  │ ├── depd@1.1.0 </tspan>
<tspan x="10" y="330">  │ ├─┬ http-errors@1.6.1 </tspan>
<tspan x="10" y="346">  │ │ └── inherits@2.0.3 </tspan>
<tspan x="10" y="362">  │ ├── iconv-lite@0.4.15 </tspan>
<tspan x="10" y="378">  │ ├─┬ on-finished@2.3.0 </tspan>
<tspan x="10" y="394">  │ │ └── ee-first@1.1.1 </tspan>
<tspan x="10" y="410">  │ ├── qs@6.4.0 </tspan>
<tspan x="10" y="426">  │ ├─┬ raw-body@2.2.0 </tspan>
<tspan x="10" y="442">  │ │ └── unpipe@1.0.0 </tspan>
<tspan x="10" y="458">  │ └─┬ type-is@1.6.15 </tspan>
<tspan x="10" y="474">  │   └── media-typer@0.3.0 </tspan>
<tspan x="10" y="490">  ├─┬ chart.js@2.5.0 </tspan>
<tspan x="10" y="506">  │ ├─┬ chartjs-color@2.1.0 </tspan>
<tspan x="10" y="522">  │ │ ├─┬ chartjs-color-string@0.4.0 </tspan>
<tspan x="10" y="538">  │ │ │ └── color-name@1.1.2 </tspan>
<tspan x="10" y="554">  │ │ └── color-convert@0.5.3 </tspan>
<tspan x="10" y="570">  │ └── moment@2.18.1 </tspan>
<tspan x="10" y="586">  ├── colors@1.1.2 </tspan>
<tspan x="10" y="602">  ├─┬ compression@1.6.2 </tspan>
<tspan x="10" y="618">  │ ├─┬ accepts@1.3.3 </tspan>
<tspan x="10" y="634">  │ │ └── negotiator@0.6.1 </tspan>
<tspan x="10" y="650">  │ ├── bytes@2.3.0 </tspan>
<tspan x="10" y="666">  │ ├─┬ compressible@2.0.10 </tspan>
<tspan x="10" y="682">  │ │ └── mime-db@1.27.0 </tspan>
<tspan x="10" y="698">  │ ├─┬ debug@2.2.0 </tspan>
<tspan x="10" y="714">  │ │ └── ms@0.7.1 </tspan>
<tspan x="10" y="730">  │ ├── on-headers@1.0.1 </tspan>
<tspan x="10" y="746">  │ └── vary@1.1.1 </tspan>
<tspan x="10" y="762">  ├── connect-ensure-login@0.1.1 </tspan>
<tspan x="10" y="778">  ├── connect-flash@0.1.1 </tspan>
<tspan x="10" y="794">  ├─┬ connect-mongo@1.3.2 </tspan>
<tspan x="10" y="810">  │ └── bluebird@3.5.0 </tspan>
<tspan x="10" y="826">  ├─┬ connect-multiparty@2.0.0 </tspan>
<tspan x="10" y="842">  │ ├─┬ multiparty@4.1.3 </tspan>
<tspan x="10" y="858">  │ │ └─┬ fd-slicer@1.0.1 </tspan>
<tspan x="10" y="874">  │ │   └── pend@1.2.0 </tspan>
<tspan x="10" y="890">  │ └── qs@4.0.0 </tspan>
<tspan x="10" y="906">  ├── connect-redis@3.1.0 </tspan>
<tspan x="10" y="922">  ├─┬ cookie-parser@1.4.3 </tspan>
<tspan x="10" y="938">  │ ├── cookie@0.3.1 </tspan>
<tspan x="10" y="954">  │ └── cookie-signature@1.0.6 </tspan>
<tspan x="10" y="970">  ├─┬ cron@1.2.1 </tspan>
<tspan x="10" y="986">  │ └── moment-timezone@0.5.13 </tspan>
<tspan x="10" y="1002">  ├─┬ csurf@1.9.0 </tspan>
<tspan x="10" y="1018">  │ ├─┬ csrf@3.0.6 </tspan>
<tspan x="10" y="1034">  │ │ ├── rndm@1.2.0 </tspan>
<tspan x="10" y="1050">  │ │ └── tsscmp@1.0.5 </tspan>
<tspan x="10" y="1066">  │ └─┬ http-errors@1.5.1 </tspan>
<tspan x="10" y="1082">  │   └── setprototypeof@1.0.2 </tspan>
<tspan x="10" y="1098">  ├── daemon@1.1.0 </tspan>
<tspan x="10" y="1114">  ├─┬ express@4.15.2 </tspan>
<tspan x="10" y="1130">  │ ├── array-flatten@1.1.1 </tspan>
<tspan x="10" y="1146">  │ ├── content-disposition@0.5.2 </tspan>
<tspan x="10" y="1162">  │ ├── encodeurl@1.0.1 </tspan>
<tspan x="10" y="1178">  │ ├── escape-html@1.0.3 </tspan>
<tspan x="10" y="1194">  │ ├── etag@1.8.0 </tspan>
<tspan x="10" y="1210">  │ ├─┬ finalhandler@1.0.2 </tspan>
<tspan x="10" y="1226">  │ │ └─┬ debug@2.6.4 </tspan>
<tspan x="10" y="1242">  │ │   └── ms@0.7.3 </tspan>
<tspan x="10" y="1258">  │ ├── fresh@0.5.0 </tspan>
<tspan x="10" y="1274">  │ ├── merge-descriptors@1.0.1 </tspan>
<tspan x="10" y="1290">  │ ├── methods@1.1.2 </tspan>
<tspan x="10" y="1306">  │ ├── parseurl@1.3.1 </tspan>
<tspan x="10" y="1322">  │ ├── path-to-regexp@0.1.7 </tspan>
<tspan x="10" y="1338">  │ ├─┬ proxy-addr@1.1.4 </tspan>
<tspan x="10" y="1354">  │ │ ├── forwarded@0.1.0 </tspan>
<tspan x="10" y="1370">  │ │ └── ipaddr.js@1.3.0 </tspan>
<tspan x="10" y="1386">  │ ├── range-parser@1.2.0 </tspan>
<tspan x="10" y="1402">  │ ├─┬ send@0.15.1 </tspan>
<tspan x="10" y="1418">  │ │ └── destroy@1.0.4 </tspan>
<tspan x="10" y="1434">  │ ├── serve-static@1.12.1 </tspan>
<tspan x="10" y="1450">  │ ├── setprototypeof@1.0.3 </tspan>
<tspan x="10" y="1466">  │ ├── statuses@1.3.1 </tspan>
<tspan x="10" y="1482">  │ └── utils-merge@1.0.0 </tspan>
<tspan x="10" y="1498">  ├─┬ express-session@1.15.2 </tspan>
<tspan x="10" y="1514">  │ ├── crc@3.4.4 </tspan>
<tspan x="10" y="1530">  │ ├── debug@2.6.3 </tspan>
<tspan x="10" y="1546">  │ └─┬ uid-safe@2.1.4 </tspan>
<tspan x="10" y="1562">  │   └── random-bytes@1.0.0 </tspan>
<tspan x="10" y="1578">  ├─┬ express-useragent@1.0.4 </tspan>
<tspan x="10" y="1594">  │ └─┬ nodeunit@0.10.2 </tspan>
<tspan x="10" y="1610">  │   └─┬ tap@7.1.2 </tspan>
<tspan x="10" y="1626">  │     ├── clean-yaml-object@0.1.0 </tspan>
<tspan x="10" y="1642">  │     ├── color-support@1.1.2 </tspan>
<tspan x="10" y="1658">  │     ├─┬ coveralls@2.13.0 </tspan>
<tspan x="10" y="1674">  │     │ ├─┬ js-yaml@3.6.1 </tspan>
<tspan x="10" y="1690">  │     │ │ └── esprima@2.7.3 </tspan>
<tspan x="10" y="1706">  │     │ ├── lcov-parse@0.0.10 </tspan>
<tspan x="10" y="1722">  │     │ ├── log-driver@1.2.5 </tspan>
<tspan x="10" y="1738">  │     │ └─┬ request@2.79.0 </tspan>
<tspan x="10" y="1754">  │     │   ├── caseless@0.11.0 </tspan>
<tspan x="10" y="1770">  │     │   ├─┬ har-validator@2.0.6 </tspan>
<tspan x="10" y="1786">  │     │   │ ├── commander@2.9.0 </tspan>
<tspan x="10" y="1802">  │     │   │ ├─┬ is-my-json-valid@2.16.0 </tspan>
<tspan x="10" y="1818">  │     │   │ │ ├── generate-function@2.0.0 </tspan>
<tspan x="10" y="1834">  │     │   │ │ ├─┬ generate-object-property@1.2.0 </tspan>
<tspan x="10" y="1850">  │     │   │ │ │ └── is-property@1.0.2 </tspan>
<tspan x="10" y="1866">  │     │   │ │ └── jsonpointer@4.0.1 </tspan>
<tspan x="10" y="1882">  │     │   │ └─┬ pinkie-promise@2.0.1 </tspan>
<tspan x="10" y="1898">  │     │   │   └── pinkie@2.0.4 </tspan>
<tspan x="10" y="1914">  │     │   ├── qs@6.3.2 </tspan>
<tspan x="10" y="1930">  │     │   └── tunnel-agent@0.4.3 </tspan>
<tspan x="10" y="1946">  │     ├── deeper@2.1.0 </tspan>
<tspan x="10" y="1962">  │     ├─┬ foreground-child@1.5.6 </tspan>
<tspan x="10" y="1978">  │     │ └─┬ cross-spawn@4.0.2 </tspan>
<tspan x="10" y="1994">  │     │   └─┬ which@1.2.14 </tspan>
<tspan x="10" y="2010">  │     │     └── isexe@2.0.0 </tspan>
<tspan x="10" y="2026">  │     ├── isexe@1.1.2 </tspan>
<tspan x="10" y="2042">  │     ├─┬ js-yaml@3.8.3 </tspan>
<tspan x="10" y="2058">  │     │ └── esprima@3.1.3 </tspan>
<tspan x="10" y="2074">  │     ├─┬ nyc@7.1.0 </tspan>
<tspan x="10" y="2090">  │     │ ├── arrify@1.0.1 </tspan>
<tspan x="10" y="2106">  │     │ ├─┬ caching-transform@1.0.1 </tspan>
<tspan x="10" y="2122">  │     │ │ └─┬ write-file-atomic@1.1.4 </tspan>
<tspan x="10" y="2138">  │     │ │   ├── graceful-fs@4.1.4 </tspan>
<tspan x="10" y="2154">  │     │ │   ├── imurmurhash@0.1.4 </tspan>
<tspan x="10" y="2170">  │     │ │   └── slide@1.1.6 </tspan>
<tspan x="10" y="2186">  │     │ ├── convert-source-map@1.3.0 </tspan>
<tspan x="10" y="2202">  │     │ ├─┬ default-require-extensions@1.0.0 </tspan>
<tspan x="10" y="2218">  │     │ │ └─┬ strip-bom@2.0.0 </tspan>
<tspan x="10" y="2234">  │     │ │   └── is-utf8@0.2.1 </tspan>
<tspan x="10" y="2250">  │     │ ├─┬ find-cache-dir@0.1.1 </tspan>
<tspan x="10" y="2266">  │     │ │ ├── commondir@1.0.1 </tspan>
<tspan x="10" y="2282">  │     │ │ └── pkg-dir@1.0.0 </tspan>
<tspan x="10" y="2298">  │     │ ├─┬ find-up@1.1.2 </tspan>
<tspan x="10" y="2314">  │     │ │ ├── path-exists@2.1.0 </tspan>
<tspan x="10" y="2330">  │     │ │ └─┬ pinkie-promise@2.0.1 </tspan>
<tspan x="10" y="2346">  │     │ │   └── pinkie@2.0.4 </tspan>
<tspan x="10" y="2362">  │     │ ├─┬ foreground-child@1.5.3 </tspan>
<tspan x="10" y="2378">  │     │ │ └─┬ cross-spawn@4.0.0 </tspan>
<tspan x="10" y="2394">  │     │ │   └─┬ lru-cache@4.0.1 </tspan>
<tspan x="10" y="2410">  │     │ │     ├── pseudomap@1.0.2 </tspan>
<tspan x="10" y="2426">  │     │ │     └── yallist@2.0.0 </tspan>
<tspan x="10" y="2442">  │     │ ├─┬ glob@7.0.5 </tspan>
<tspan x="10" y="2458">  │     │ │ ├── fs.realpath@1.0.0 </tspan>
<tspan x="10" y="2474">  │     │ │ ├─┬ inflight@1.0.5 </tspan>
<tspan x="10" y="2490">  │     │ │ │ └── wrappy@1.0.2 </tspan>
<tspan x="10" y="2506">  │     │ │ ├── inherits@2.0.1 </tspan>
<tspan x="10" y="2522">  │     │ │ ├─┬ minimatch@3.0.2 </tspan>
<tspan x="10" y="2538">  │     │ │ │ └─┬ brace-expansion@1.1.6 </tspan>
<tspan x="10" y="2554">  │     │ │ │   ├── balanced-match@0.4.2 </tspan>
<tspan x="10" y="2570">  │     │ │ │   └── concat-map@0.0.1 </tspan>
<tspan x="10" y="2586">  │     │ │ ├── once@1.3.3 </tspan>
<tspan x="10" y="2602">  │     │ │ └── path-is-absolute@1.0.0 </tspan>
<tspan x="10" y="2618">  │     │ ├── istanbul-lib-coverage@1.0.0-alpha.4 </tspan>
<tspan x="10" y="2634">  │     │ ├─┬ istanbul-lib-hook@1.0.0-alpha.4 </tspan>
<tspan x="10" y="2650">  │     │ │ └── append-transform@0.3.0 </tspan>
<tspan x="10" y="2666">  │     │ ├─┬ istanbul-lib-instrument@1.1.0-alpha.4 </tspan>
<tspan x="10" y="2682">  │     │ │ ├─┬ babel-generator@6.11.4 </tspan>
<tspan x="10" y="2698">  │     │ │ │ ├── babel-messages@6.8.0 </tspan>
<tspan x="10" y="2714">  │     │ │ │ ├─┬ babel-runtime@6.9.2 </tspan>
<tspan x="10" y="2730">  │     │ │ │ │ ├── core-js@2.4.1 </tspan>
<tspan x="10" y="2746">  │     │ │ │ │ └── regenerator-runtime@0.9.5 </tspan>
<tspan x="10" y="2762">  │     │ │ │ ├─┬ detect-indent@3.0.1 </tspan>
<tspan x="10" y="2778">  │     │ │ │ │ ├── get-stdin@4.0.1 </tspan>
<tspan x="10" y="2794">  │     │ │ │ │ ├── minimist@1.2.0 </tspan>
<tspan x="10" y="2810">  │     │ │ │ │ └─┬ repeating@1.1.3 </tspan>
<tspan x="10" y="2826">  │     │ │ │ │   └── is-finite@1.0.1 </tspan>
<tspan x="10" y="2842">  │     │ │ │ └── lodash@4.13.1 </tspan>
<tspan x="10" y="2858">  │     │ │ ├── babel-template@6.9.0 </tspan>
<tspan x="10" y="2874">  │     │ │ ├─┬ babel-traverse@6.11.4 </tspan>
<tspan x="10" y="2890">  │     │ │ │ ├─┬ babel-code-frame@6.11.0 </tspan>
<tspan x="10" y="2906">  │     │ │ │ │ ├─┬ chalk@1.1.3 </tspan>
<tspan x="10" y="2922">  │     │ │ │ │ │ ├── ansi-styles@2.2.1 </tspan>
<tspan x="10" y="2938">  │     │ │ │ │ │ ├── escape-string-regexp@1.0.5 </tspan>
<tspan x="10" y="2954">  │     │ │ │ │ │ ├── has-ansi@2.0.0 </tspan>
<tspan x="10" y="2970">  │     │ │ │ │ │ └── supports-color@2.0.0 </tspan>
<tspan x="10" y="2986">  │     │ │ │ │ └── js-tokens@2.0.0 </tspan>
<tspan x="10" y="3002">  │     │ │ │ ├─┬ debug@2.2.0 </tspan>
<tspan x="10" y="3018">  │     │ │ │ │ └── ms@0.7.1 </tspan>
<tspan x="10" y="3034">  │     │ │ │ ├── globals@8.18.0 </tspan>
<tspan x="10" y="3050">  │     │ │ │ └─┬ invariant@2.2.1 </tspan>
<tspan x="10" y="3066">  │     │ │ │   └─┬ loose-envify@1.2.0 </tspan>
<tspan x="10" y="3082">  │     │ │ │     └── js-tokens@1.0.3 </tspan>
<tspan x="10" y="3098">  │     │ │ ├─┬ babel-types@6.11.1 </tspan>
<tspan x="10" y="3114">  │     │ │ │ ├── esutils@2.0.2 </tspan>
<tspan x="10" y="3130">  │     │ │ │ └── to-fast-properties@1.0.2 </tspan>
<tspan x="10" y="3146">  │     │ │ └── babylon@6.8.4 </tspan>
<tspan x="10" y="3162">  │     │ ├─┬ istanbul-lib-report@1.0.0-alpha.3 </tspan>
<tspan x="10" y="3178">  │     │ │ ├── async@1.5.2 </tspan>
<tspan x="10" y="3194">  │     │ │ ├── path-parse@1.0.5 </tspan>
<tspan x="10" y="3210">  │     │ │ └─┬ supports-color@3.1.2 </tspan>
<tspan x="10" y="3226">  │     │ │   └── has-flag@1.0.0 </tspan>
<tspan x="10" y="3242">  │     │ ├─┬ istanbul-lib-source-maps@1.0.0-alpha.10 </tspan>
<tspan x="10" y="3258">  │     │ │ └── source-map@0.5.6 </tspan>
<tspan x="10" y="3274">  │     │ ├─┬ istanbul-reports@1.0.0-alpha.8 </tspan>
<tspan x="10" y="3290">  │     │ │ └─┬ handlebars@4.0.5 </tspan>
<tspan x="10" y="3306">  │     │ │   ├─┬ optimist@0.6.1 </tspan>
<tspan x="10" y="3322">  │     │ │   │ └── wordwrap@0.0.3 </tspan>
<tspan x="10" y="3338">  │     │ │   ├─┬ source-map@0.4.4 </tspan>
<tspan x="10" y="3354">  │     │ │   │ └── amdefine@1.0.0 </tspan>
<tspan x="10" y="3370">  │     │ │   └─┬ uglify-js@2.7.0 </tspan>
<tspan x="10" y="3386">  │     │ │     ├── async@0.2.10 </tspan>
<tspan x="10" y="3402">  │     │ │     ├── uglify-to-browserify@1.0.2 </tspan>
<tspan x="10" y="3418">  │     │ │     └─┬ yargs@3.10.0 </tspan>
<tspan x="10" y="3434">  │     │ │       ├── camelcase@1.2.1 </tspan>
<tspan x="10" y="3450">  │     │ │       ├─┬ cliui@2.1.0 </tspan>
<tspan x="10" y="3466">  │     │ │       │ ├─┬ center-align@0.1.3 </tspan>
<tspan x="10" y="3482">  │     │ │       │ │ ├─┬ align-text@0.1.4 </tspan>
<tspan x="10" y="3498">  │     │ │       │ │ │ └── longest@1.0.1 </tspan>
<tspan x="10" y="3514">  │     │ │       │ │ └── lazy-cache@1.0.4 </tspan>
<tspan x="10" y="3530">  │     │ │       │ ├── right-align@0.1.3 </tspan>
<tspan x="10" y="3546">  │     │ │       │ └── wordwrap@0.0.2 </tspan>
<tspan x="10" y="3562">  │     │ │       └── window-size@0.1.0 </tspan>
<tspan x="10" y="3578">  │     │ ├─┬ md5-hex@1.3.0 </tspan>
<tspan x="10" y="3594">  │     │ │ └── md5-o-matic@0.1.1 </tspan>
<tspan x="10" y="3610">  │     │ ├─┬ micromatch@2.3.11 </tspan>
<tspan x="10" y="3626">  │     │ │ ├─┬ arr-diff@2.0.0 </tspan>
<tspan x="10" y="3642">  │     │ │ │ └── arr-flatten@1.0.1 </tspan>
<tspan x="10" y="3658">  │     │ │ ├── array-unique@0.2.1 </tspan>
<tspan x="10" y="3674">  │     │ │ ├─┬ braces@1.8.5 </tspan>
<tspan x="10" y="3690">  │     │ │ │ ├─┬ expand-range@1.8.2 </tspan>
<tspan x="10" y="3706">  │     │ │ │ │ └─┬ fill-range@2.2.3 </tspan>
<tspan x="10" y="3722">  │     │ │ │ │   ├── is-number@2.1.0 </tspan>
<tspan x="10" y="3738">  │     │ │ │ │   ├─┬ isobject@2.1.0 </tspan>
<tspan x="10" y="3754">  │     │ │ │ │   │ └── isarray@1.0.0 </tspan>
<tspan x="10" y="3770">  │     │ │ │ │   ├── randomatic@1.1.5 </tspan>
<tspan x="10" y="3786">  │     │ │ │ │   └── repeat-string@1.5.4 </tspan>
<tspan x="10" y="3802">  │     │ │ │ ├── preserve@0.2.0 </tspan>
<tspan x="10" y="3818">  │     │ │ │ └── repeat-element@1.1.2 </tspan>
<tspan x="10" y="3834">  │     │ │ ├─┬ expand-brackets@0.1.5 </tspan>
<tspan x="10" y="3850">  │     │ │ │ └── is-posix-bracket@0.1.1 </tspan>
<tspan x="10" y="3866">  │     │ │ ├── extglob@0.3.2 </tspan>
<tspan x="10" y="3882">  │     │ │ ├── filename-regex@2.0.0 </tspan>
<tspan x="10" y="3898">  │     │ │ ├── is-extglob@1.0.0 </tspan>
<tspan x="10" y="3914">  │     │ │ ├── is-glob@2.0.1 </tspan>
<tspan x="10" y="3930">  │     │ │ ├─┬ kind-of@3.0.3 </tspan>
<tspan x="10" y="3946">  │     │ │ │ └── is-buffer@1.1.3 </tspan>
<tspan x="10" y="3962">  │     │ │ ├── normalize-path@2.0.1 </tspan>
<tspan x="10" y="3978">  │     │ │ ├─┬ object.omit@2.0.0 </tspan>
<tspan x="10" y="3994">  │     │ │ │ ├─┬ for-own@0.1.4 </tspan>
<tspan x="10" y="4010">  │     │ │ │ │ └── for-in@0.1.5 </tspan>
<tspan x="10" y="4026">  │     │ │ │ └── is-extendable@0.1.1 </tspan>
<tspan x="10" y="4042">  │     │ │ ├─┬ parse-glob@3.0.4 </tspan>
<tspan x="10" y="4058">  │     │ │ │ ├─┬ glob-base@0.3.0 </tspan>
<tspan x="10" y="4074">  │     │ │ │ │ └── glob-parent@2.0.0 </tspan>
<tspan x="10" y="4090">  │     │ │ │ └── is-dotfile@1.0.2 </tspan>
<tspan x="10" y="4106">  │     │ │ └─┬ regex-cache@0.4.3 </tspan>
<tspan x="10" y="4122">  │     │ │   ├── is-equal-shallow@0.1.3 </tspan>
<tspan x="10" y="4138">  │     │ │   └── is-primitive@2.0.0 </tspan>
<tspan x="10" y="4154">  │     │ ├─┬ mkdirp@0.5.1 </tspan>
<tspan x="10" y="4170">  │     │ │ └── minimist@0.0.8 </tspan>
<tspan x="10" y="4186">  │     │ ├── pkg-up@1.0.0 </tspan>
<tspan x="10" y="4202">  │     │ ├── resolve-from@2.0.0 </tspan>
<tspan x="10" y="4218">  │     │ ├── rimraf@2.5.4 </tspan>
<tspan x="10" y="4234">  │     │ ├── signal-exit@3.0.0 </tspan>
<tspan x="10" y="4250">  │     │ ├─┬ spawn-wrap@1.2.4 </tspan>
<tspan x="10" y="4266">  │     │ │ ├── os-homedir@1.0.1 </tspan>
<tspan x="10" y="4282">  │     │ │ ├── signal-exit@2.1.2 </tspan>
<tspan x="10" y="4298">  │     │ │ └─┬ which@1.2.10 </tspan>
<tspan x="10" y="4314">  │     │ │   └── isexe@1.1.2 </tspan>
<tspan x="10" y="4330">  │     │ ├─┬ test-exclude@1.1.0 </tspan>
<tspan x="10" y="4346">  │     │ │ ├─┬ lodash.assign@4.0.9 </tspan>
<tspan x="10" y="4362">  │     │ │ │ ├── lodash.keys@4.0.7 </tspan>
<tspan x="10" y="4378">  │     │ │ │ └── lodash.rest@4.0.3 </tspan>
<tspan x="10" y="4394">  │     │ │ ├─┬ read-pkg-up@1.0.1 </tspan>
<tspan x="10" y="4410">  │     │ │ │ └─┬ read-pkg@1.1.0 </tspan>
<tspan x="10" y="4426">  │     │ │ │   ├─┬ load-json-file@1.1.0 </tspan>
<tspan x="10" y="4442">  │     │ │ │   │ ├─┬ parse-json@2.2.0 </tspan>
<tspan x="10" y="4458">  │     │ │ │   │ │ └─┬ error-ex@1.3.0 </tspan>
<tspan x="10" y="4474">  │     │ │ │   │ │   └── is-arrayish@0.2.1 </tspan>
<tspan x="10" y="4490">  │     │ │ │   │ └── pify@2.3.0 </tspan>
<tspan x="10" y="4506">  │     │ │ │   ├─┬ normalize-package-data@2.3.5 </tspan>
<tspan x="10" y="4522">  │     │ │ │   │ ├── hosted-git-info@2.1.5 </tspan>
<tspan x="10" y="4538">  │     │ │ │   │ ├─┬ is-builtin-module@1.0.0 </tspan>
<tspan x="10" y="4554">  │     │ │ │   │ │ └── builtin-modules@1.1.1 </tspan>
<tspan x="10" y="4570">  │     │ │ │   │ ├── semver@5.3.0 </tspan>
<tspan x="10" y="4586">  │     │ │ │   │ └─┬ validate-npm-package-license@3.0.1 </tspan>
<tspan x="10" y="4602">  │     │ │ │   │   ├─┬ spdx-correct@1.0.2 </tspan>
<tspan x="10" y="4618">  │     │ │ │   │   │ └── spdx-license-ids@1.2.1 </tspan>
<tspan x="10" y="4634">  │     │ │ │   │   └─┬ spdx-expression-parse@1.0.2 </tspan>
<tspan x="10" y="4650">  │     │ │ │   │     └── spdx-exceptions@1.0.5 </tspan>
<tspan x="10" y="4666">  │     │ │ │   └── path-type@1.1.0 </tspan>
<tspan x="10" y="4682">  │     │ │ └── require-main-filename@1.0.1 </tspan>
<tspan x="10" y="4698">  │     │ ├─┬ yargs@4.8.1 </tspan>
<tspan x="10" y="4714">  │     │ │ ├─┬ cliui@3.2.0 </tspan>
<tspan x="10" y="4730">  │     │ │ │ └── wrap-ansi@2.0.0 </tspan>
<tspan x="10" y="4746">  │     │ │ ├── decamelize@1.2.0 </tspan>
<tspan x="10" y="4762">  │     │ │ ├── get-caller-file@1.0.1 </tspan>
<tspan x="10" y="4778">  │     │ │ ├─┬ os-locale@1.4.0 </tspan>
<tspan x="10" y="4794">  │     │ │ │ └─┬ lcid@1.0.0 </tspan>
<tspan x="10" y="4810">  │     │ │ │   └── invert-kv@1.0.0 </tspan>
<tspan x="10" y="4826">  │     │ │ ├── require-directory@2.1.1 </tspan>
<tspan x="10" y="4842">  │     │ │ ├── set-blocking@2.0.0 </tspan>
<tspan x="10" y="4858">  │     │ │ ├─┬ string-width@1.0.1 </tspan>
<tspan x="10" y="4874">  │     │ │ │ ├─┬ code-point-at@1.0.0 </tspan>
<tspan x="10" y="4890">  │     │ │ │ │ └── number-is-nan@1.0.0 </tspan>
<tspan x="10" y="4906">  │     │ │ │ ├── is-fullwidth-code-point@1.0.0 </tspan>
<tspan x="10" y="4922">  │     │ │ │ └─┬ strip-ansi@3.0.1 </tspan>
<tspan x="10" y="4938">  │     │ │ │   └── ansi-regex@2.0.0 </tspan>
<tspan x="10" y="4954">  │     │ │ ├── which-module@1.0.0 </tspan>
<tspan x="10" y="4970">  │     │ │ ├── window-size@0.2.0 </tspan>
<tspan x="10" y="4986">  │     │ │ └── y18n@3.2.1 </tspan>
<tspan x="10" y="5002">  │     │ └─┬ yargs-parser@2.4.1 </tspan>
<tspan x="10" y="5018">  │     │   └── camelcase@3.0.0 </tspan>
<tspan x="10" y="5034">  │     ├── only-shallow@1.2.0 </tspan>
<tspan x="10" y="5050">  │     ├── opener@1.4.3 </tspan>
<tspan x="10" y="5066">  │     ├── os-homedir@1.0.1 </tspan>
<tspan x="10" y="5082">  │     ├── signal-exit@3.0.2 </tspan>
<tspan x="10" y="5098">  │     ├── stack-utils@0.4.0 </tspan>
<tspan x="10" y="5114">  │     ├─┬ tap-mocha-reporter@2.0.1 </tspan>
<tspan x="10" y="5130">  │     │ ├── diff@1.4.0 </tspan>
<tspan x="10" y="5146">  │     │ └── unicode-length@1.0.3 </tspan>
<tspan x="10" y="5162">  │     ├─┬ tap-parser@2.2.3 </tspan>
<tspan x="10" y="5178">  │     │ └── events-to-array@1.1.2 </tspan>
<tspan x="10" y="5194">  │     └── tmatch@2.0.1 </tspan>
<tspan x="10" y="5210">  ├─┬ html-to-text@2.1.3 </tspan>
<tspan x="10" y="5226">  │ ├── he@1.1.1 </tspan>
<tspan x="10" y="5242">  │ ├── htmlparser@1.7.7 </tspan>
<tspan x="10" y="5258">  │ ├─┬ optimist@0.6.1 </tspan>
<tspan x="10" y="5274">  │ │ ├── minimist@0.0.10 </tspan>
<tspan x="10" y="5290">  │ │ └── wordwrap@0.0.3 </tspan>
<tspan x="10" y="5306">  │ └─┬ underscore.string@3.3.4 </tspan>
<tspan x="10" y="5322">  │   ├── sprintf-js@1.0.3 </tspan>
<tspan x="10" y="5338">  │   └── util-deprecate@1.0.2 </tspan>
<tspan x="10" y="5354">  ├── ip@1.1.3 </tspan>
<tspan x="10" y="5370">  ├─┬ jimp@0.2.27 </tspan>
<tspan x="10" y="5386">  │ ├── bignumber.js@2.4.0 </tspan>
<tspan x="10" y="5402">  │ ├── bmp-js@0.0.1 </tspan>
<tspan x="10" y="5418">  │ ├── es6-promise@3.2.1 </tspan>
<tspan x="10" y="5434">  │ ├── exif-parser@0.1.9 </tspan>
<tspan x="10" y="5450">  │ ├── file-type@3.9.0 </tspan>
<tspan x="10" y="5466">  │ ├── jpeg-js@0.2.0 </tspan>
<tspan x="10" y="5482">  │ ├─┬ load-bmfont@1.3.0 </tspan>
<tspan x="10" y="5498">  │ │ ├── buffer-equal@0.0.1 </tspan>
<tspan x="10" y="5514">  │ │ ├── parse-bmfont-ascii@1.0.6 </tspan>
<tspan x="10" y="5530">  │ │ ├── parse-bmfont-binary@1.0.6 </tspan>
<tspan x="10" y="5546">  │ │ ├─┬ parse-bmfont-xml@1.1.3 </tspan>
<tspan x="10" y="5562">  │ │ │ ├── xml-parse-from-string@1.0.0 </tspan>
<tspan x="10" y="5578">  │ │ │ └─┬ xml2js@0.4.17 </tspan>
<tspan x="10" y="5594">  │ │ │   ├── sax@1.2.2 </tspan>
<tspan x="10" y="5610">  │ │ │   └── xmlbuilder@4.2.1 </tspan>
<tspan x="10" y="5626">  │ │ ├─┬ xhr@2.4.0 </tspan>
<tspan x="10" y="5642">  │ │ │ ├─┬ global@4.3.2 </tspan>
<tspan x="10" y="5658">  │ │ │ │ ├─┬ min-document@2.19.0 </tspan>
<tspan x="10" y="5674">  │ │ │ │ │ └── dom-walk@0.1.1 </tspan>
<tspan x="10" y="5690">  │ │ │ │ └── process@0.5.2 </tspan>
<tspan x="10" y="5706">  │ │ │ ├── is-function@1.0.1 </tspan>
<tspan x="10" y="5722">  │ │ │ └─┬ parse-headers@2.0.1 </tspan>
<tspan x="10" y="5738">  │ │ │   ├── for-each@0.3.2 </tspan>
<tspan x="10" y="5754">  │ │ │   └── trim@0.0.1 </tspan>
<tspan x="10" y="5770">  │ │ └── xtend@4.0.1 </tspan>
<tspan x="10" y="5786">  │ ├── pixelmatch@4.0.2 </tspan>
<tspan x="10" y="5802">  │ ├── pngjs@3.0.1 </tspan>
<tspan x="10" y="5818">  │ ├── read-chunk@1.0.1 </tspan>
<tspan x="10" y="5834">  │ ├─┬ stream-to-buffer@0.1.0 </tspan>
<tspan x="10" y="5850">  │ │ └── stream-to@0.2.2 </tspan>
<tspan x="10" y="5866">  │ ├── tinycolor2@1.4.1 </tspan>
<tspan x="10" y="5882">  │ └─┬ url-regex@3.2.0 </tspan>
<tspan x="10" y="5898">  │   └── ip-regex@1.0.3 </tspan>
<tspan x="10" y="5914">  ├── jquery@3.2.1 </tspan>
<tspan x="10" y="5930">  ├─┬ json-2-csv@2.1.0 </tspan>
<tspan x="10" y="5946">  │ ├── bluebird@3.4.6 </tspan>
<tspan x="10" y="5962">  │ └── doc-path@1.0.8 </tspan>
<tspan x="10" y="5978">  ├─┬ less@2.7.2 </tspan>
<tspan x="10" y="5994">  │ ├─┬ errno@0.1.4 </tspan>
<tspan x="10" y="6010">  │ │ └── prr@0.0.0 </tspan>
<tspan x="10" y="6026">  │ ├── graceful-fs@4.1.11 </tspan>
<tspan x="10" y="6042">  │ ├── image-size@0.5.1 </tspan>
<tspan x="10" y="6058">  │ ├─┬ promise@7.1.1 </tspan>
<tspan x="10" y="6074">  │ │ └── asap@2.0.5 </tspan>
<tspan x="10" y="6090">  │ └── source-map@0.5.6 </tspan>
<tspan x="10" y="6106">  ├─┬ logrotate-stream@0.2.5 </tspan>
<tspan x="10" y="6122">  │ ├── byt@0.1.0 </tspan>
<tspan x="10" y="6138">  │ └── log-rotate@0.2.7 </tspan>
<tspan x="10" y="6154">  ├─┬ lru-cache@4.0.1 </tspan>
<tspan x="10" y="6170">  │ ├── pseudomap@1.0.2 </tspan>
<tspan x="10" y="6186">  │ └── yallist@2.1.2 </tspan>
<tspan x="10" y="6202">  ├── mime@1.3.4 </tspan>
<tspan x="10" y="6218">  ├── minimist@1.2.0 </tspan>
<tspan x="10" y="6234">  ├─┬ mkdirp@0.5.1 </tspan>
<tspan x="10" y="6250">  │ └── minimist@0.0.8 </tspan>
<tspan x="10" y="6266">  ├─┬ mongodb@2.2.10 </tspan>
<tspan x="10" y="6282">  │ ├─┬ mongodb-core@2.0.12 </tspan>
<tspan x="10" y="6298">  │ │ ├── bson@0.5.7 </tspan>
<tspan x="10" y="6314">  │ │ └─┬ require_optional@1.0.0 </tspan>
<tspan x="10" y="6330">  │ │   └── resolve-from@2.0.0 </tspan>
<tspan x="10" y="6346">  │ └─┬ readable-stream@2.1.5 </tspan>
<tspan x="10" y="6362">  │   ├── buffer-shims@1.0.0 </tspan>
<tspan x="10" y="6378">  │   ├── core-util-is@1.0.2 </tspan>
<tspan x="10" y="6394">  │   ├── isarray@1.0.0 </tspan>
<tspan x="10" y="6410">  │   ├── process-nextick-args@1.0.7 </tspan>
<tspan x="10" y="6426">  │   └── string_decoder@0.10.31 </tspan>
<tspan x="10" y="6442">  ├─┬ morgan@1.8.1 </tspan>
<tspan x="10" y="6458">  │ └── basic-auth@1.1.0 </tspan>
<tspan x="10" y="6474">  ├── mousetrap@1.6.1 </tspan>
<tspan x="10" y="6490">  ├─┬ nconf@0.8.4 </tspan>
<tspan x="10" y="6506">  │ ├── ini@1.3.4 </tspan>
<tspan x="10" y="6522">  │ ├── secure-keys@1.0.0 </tspan>
<tspan x="10" y="6538">  │ └─┬ yargs@3.32.0 </tspan>
<tspan x="10" y="6554">  │   ├── camelcase@2.1.1 </tspan>
<tspan x="10" y="6570">  │   ├─┬ cliui@3.2.0 </tspan>
<tspan x="10" y="6586">  │   │ └── wrap-ansi@2.1.0 </tspan>
<tspan x="10" y="6602">  │   ├── decamelize@1.2.0 </tspan>
<tspan x="10" y="6618">  │   ├─┬ os-locale@1.4.0 </tspan>
<tspan x="10" y="6634">  │   │ └─┬ lcid@1.0.0 </tspan>
<tspan x="10" y="6650">  │   │   └── invert-kv@1.0.0 </tspan>
<tspan x="10" y="6666">  │   ├─┬ string-width@1.0.2 </tspan>
<tspan x="10" y="6682">  │   │ ├── code-point-at@1.1.0 </tspan>
<tspan x="10" y="6698">  │   │ └─┬ is-fullwidth-code-point@1.0.0 </tspan>
<tspan x="10" y="6714">  │   │   └── number-is-nan@1.0.1 </tspan>
<tspan x="10" y="6730">  │   ├── window-size@0.1.4 </tspan>
<tspan x="10" y="6746">  │   └── y18n@3.2.1 </tspan>
<tspan x="10" y="6762">  ├─┬ nodebb-plugin-composer-default@4.3.0 </tspan>
<tspan x="10" y="6778">  │ └── screenfull@3.0.0 </tspan>
<tspan x="10" y="6794">  ├─┬ nodebb-plugin-dbsearch@1.0.4 </tspan>
<tspan x="10" y="6810">  │ └─┬ redisearch@0.0.6 </tspan>
<tspan x="10" y="6826">  │   ├─┬ natural@0.2.1 </tspan>
<tspan x="10" y="6842">  │   │ ├── apparatus@0.0.9 </tspan>
<tspan x="10" y="6858">  │   │ └── sylvester@0.0.21 </tspan>
<tspan x="10" y="6874">  │   └── redis@0.12.1 </tspan>
<tspan x="10" y="6890">  ├─┬ nodebb-plugin-emoji-extended@1.1.1 </tspan>
<tspan x="10" y="6906">  │ ├── lodash@4.17.4 </tspan>
<tspan x="10" y="6922">  │ └── q@1.5.0 </tspan>
<tspan x="10" y="6938">  ├─┬ nodebb-plugin-emoji-one@1.1.5 </tspan>
<tspan x="10" y="6954">  │ ├── adm-zip@0.4.7 </tspan>
<tspan x="10" y="6970">  │ └── wrench@1.5.9 </tspan>
<tspan x="10" y="6986">  ├─┬ nodebb-plugin-markdown@7.0.1 </tspan>
<tspan x="10" y="7002">  │ └─┬ markdown-it@6.1.1 </tspan>
<tspan x="10" y="7018">  │   ├── argparse@1.0.9 </tspan>
<tspan x="10" y="7034">  │   ├── entities@1.1.1 </tspan>
<tspan x="10" y="7050">  │   ├── linkify-it@1.2.4 </tspan>
<tspan x="10" y="7066">  │   ├── mdurl@1.0.1 </tspan>
<tspan x="10" y="7082">  │   └── uc.micro@1.0.3 </tspan>
<tspan x="10" y="7098">  ├── nodebb-plugin-mentions@1.1.3 </tspan>
<tspan x="10" y="7114">  ├── nodebb-plugin-soundpack-default@0.1.6 </tspan>
<tspan x="10" y="7130">  ├─┬ nodebb-plugin-spam-be-gone@0.4.10 </tspan>
<tspan x="10" y="7146">  │ ├── akismet@1.0.0 </tspan>
<tspan x="10" y="7162">  │ ├── project-honeypot@0.0.0 </tspan>
<tspan x="10" y="7178">  │ └── simple-recaptcha-new@1.1.1 </tspan>
<tspan x="10" y="7194">  ├── nodebb-rewards-essentials@0.0.9 </tspan>
<tspan x="10" y="7210">  ├── nodebb-theme-lavender@3.0.15 </tspan>
<tspan x="10" y="7226">  ├── nodebb-theme-persona@4.1.88 </tspan>
<tspan x="10" y="7242">  ├── nodebb-theme-vanilla@5.1.56 </tspan>
<tspan x="10" y="7258">  ├── nodebb-widget-essentials@2.0.13 </tspan>
<tspan x="10" y="7274">  ├─┬ nodemailer@2.6.4 </tspan>
<tspan x="10" y="7290">  │ ├─┬ libmime@2.1.0 </tspan>
<tspan x="10" y="7306">  │ │ ├── iconv-lite@0.4.13 </tspan>
<tspan x="10" y="7322">  │ │ ├── libbase64@0.1.0 </tspan>
<tspan x="10" y="7338">  │ │ └── libqp@1.1.0 </tspan>
<tspan x="10" y="7354">  │ ├─┬ mailcomposer@3.12.0 </tspan>
<tspan x="10" y="7370">  │ │ └─┬ buildmail@3.10.0 </tspan>
<tspan x="10" y="7386">  │ │   └── addressparser@1.0.1 </tspan>
<tspan x="10" y="7402">  │ ├── nodemailer-direct-transport@3.3.2 </tspan>
<tspan x="10" y="7418">  │ ├─┬ nodemailer-shared@1.1.0 </tspan>
<tspan x="10" y="7434">  │ │ └── nodemailer-fetch@1.6.0 </tspan>
<tspan x="10" y="7450">  │ ├── nodemailer-smtp-pool@2.8.2 </tspan>
<tspan x="10" y="7466">  │ ├── nodemailer-smtp-transport@2.7.2 </tspan>
<tspan x="10" y="7482">  │ └─┬ socks@1.1.9 </tspan>
<tspan x="10" y="7498">  │   └── smart-buffer@1.1.15 </tspan>
<tspan x="10" y="7514">  ├── nodemailer-sendmail-transport@1.0.0 </tspan>
<tspan x="10" y="7530">  ├─┬ nodemailer-smtp-transport@2.7.4 </tspan>
<tspan x="10" y="7546">  │ ├── nodemailer-wellknown@0.1.10 </tspan>
<tspan x="10" y="7562">  │ └─┬ smtp-connection@2.12.0 </tspan>
<tspan x="10" y="7578">  │   └─┬ httpntlm@1.6.1 </tspan>
<tspan x="10" y="7594">  │     ├── httpreq@0.4.23 </tspan>
<tspan x="10" y="7610">  │     └── underscore@1.7.0 </tspan>
<tspan x="10" y="7626">  ├─┬ passport@0.3.2 </tspan>
<tspan x="10" y="7642">  │ ├── passport-strategy@1.0.0 </tspan>
<tspan x="10" y="7658">  │ └── pause@0.0.1 </tspan>
<tspan x="10" y="7674">  ├── passport-local@1.0.0 </tspan>
<tspan x="10" y="7690">  ├─┬ postcss@5.2.17 </tspan>
<tspan x="10" y="7706">  │ ├─┬ chalk@1.1.3 </tspan>
<tspan x="10" y="7722">  │ │ ├── ansi-styles@2.2.1 </tspan>
<tspan x="10" y="7738">  │ │ ├── escape-string-regexp@1.0.5 </tspan>
<tspan x="10" y="7754">  │ │ ├─┬ has-ansi@2.0.0 </tspan>
<tspan x="10" y="7770">  │ │ │ └── ansi-regex@2.1.1 </tspan>
<tspan x="10" y="7786">  │ │ ├── strip-ansi@3.0.1 </tspan>
<tspan x="10" y="7802">  │ │ └── supports-color@2.0.0 </tspan>
<tspan x="10" y="7818">  │ ├── js-base64@2.1.9 </tspan>
<tspan x="10" y="7834">  │ └─┬ supports-color@3.2.3 </tspan>
<tspan x="10" y="7850">  │   └── has-flag@1.0.0 </tspan>
<tspan x="10" y="7866">  ├─┬ postcss-clean@1.0.2 </tspan>
<tspan x="10" y="7882">  │ ├─┬ clean-css@3.4.25 </tspan>
<tspan x="10" y="7898">  │ │ ├─┬ commander@2.8.1 </tspan>
<tspan x="10" y="7914">  │ │ │ └── graceful-readlink@1.0.1 </tspan>
<tspan x="10" y="7930">  │ │ └─┬ source-map@0.4.4 </tspan>
<tspan x="10" y="7946">  │ │   └── amdefine@1.0.1 </tspan>
<tspan x="10" y="7962">  │ └── postcss@5.0.21 </tspan>
<tspan x="10" y="7978">  ├── promise-polyfill@6.0.2 </tspan>
<tspan x="10" y="7994">  ├─┬ prompt@1.0.0 </tspan>
<tspan x="10" y="8010">  │ ├── pkginfo@0.4.0 </tspan>
<tspan x="10" y="8026">  │ ├─┬ read@1.0.7 </tspan>
<tspan x="10" y="8042">  │ │ └── mute-stream@0.0.7 </tspan>
<tspan x="10" y="8058">  │ ├── revalidator@0.1.8 </tspan>
<tspan x="10" y="8074">  │ ├─┬ utile@0.3.0 </tspan>
<tspan x="10" y="8090">  │ │ ├── async@0.9.2 </tspan>
<tspan x="10" y="8106">  │ │ ├── deep-equal@0.2.2 </tspan>
<tspan x="10" y="8122">  │ │ ├── i@0.3.5 </tspan>
<tspan x="10" y="8138">  │ │ └── ncp@1.0.1 </tspan>
<tspan x="10" y="8154">  │ └─┬ winston@2.1.1 </tspan>
<tspan x="10" y="8170">  │   ├── async@1.0.0 </tspan>
<tspan x="10" y="8186">  │   ├── colors@1.0.3 </tspan>
<tspan x="10" y="8202">  │   └── pkginfo@0.3.1 </tspan>
<tspan x="10" y="8218">  ├─┬ redis@2.6.5 </tspan>
<tspan x="10" y="8234">  │ ├── double-ended-queue@2.1.0-0 </tspan>
<tspan x="10" y="8250">  │ ├── redis-commands@1.3.1 </tspan>
<tspan x="10" y="8266">  │ └── redis-parser@2.6.0 </tspan>
<tspan x="10" y="8282">  ├─┬ request@2.81.0 </tspan>
<tspan x="10" y="8298">  │ ├── aws-sign2@0.6.0 </tspan>
<tspan x="10" y="8314">  │ ├── aws4@1.6.0 </tspan>
<tspan x="10" y="8330">  │ ├── caseless@0.12.0 </tspan>
<tspan x="10" y="8346">  │ ├─┬ combined-stream@1.0.5 </tspan>
<tspan x="10" y="8362">  │ │ └── delayed-stream@1.0.0 </tspan>
<tspan x="10" y="8378">  │ ├── extend@3.0.0 </tspan>
<tspan x="10" y="8394">  │ ├── forever-agent@0.6.1 </tspan>
<tspan x="10" y="8410">  │ ├─┬ form-data@2.1.4 </tspan>
<tspan x="10" y="8426">  │ │ └── asynckit@0.4.0 </tspan>
<tspan x="10" y="8442">  │ ├─┬ har-validator@4.2.1 </tspan>
<tspan x="10" y="8458">  │ │ ├─┬ ajv@4.11.7 </tspan>
<tspan x="10" y="8474">  │ │ │ ├── co@4.6.0 </tspan>
<tspan x="10" y="8490">  │ │ │ └─┬ json-stable-stringify@1.0.1 </tspan>
<tspan x="10" y="8506">  │ │ │   └── jsonify@0.0.0 </tspan>
<tspan x="10" y="8522">  │ │ └── har-schema@1.0.5 </tspan>
<tspan x="10" y="8538">  │ ├─┬ hawk@3.1.3 </tspan>
<tspan x="10" y="8554">  │ │ ├── boom@2.10.1 </tspan>
<tspan x="10" y="8570">  │ │ ├── cryptiles@2.0.5 </tspan>
<tspan x="10" y="8586">  │ │ ├── hoek@2.16.3 </tspan>
<tspan x="10" y="8602">  │ │ └── sntp@1.0.9 </tspan>
<tspan x="10" y="8618">  │ ├─┬ http-signature@1.1.1 </tspan>
<tspan x="10" y="8634">  │ │ ├── assert-plus@0.2.0 </tspan>
<tspan x="10" y="8650">  │ │ ├─┬ jsprim@1.4.0 </tspan>
<tspan x="10" y="8666">  │ │ │ ├── assert-plus@1.0.0 </tspan>
<tspan x="10" y="8682">  │ │ │ ├── extsprintf@1.0.2 </tspan>
<tspan x="10" y="8698">  │ │ │ ├── json-schema@0.2.3 </tspan>
<tspan x="10" y="8714">  │ │ │ └── verror@1.3.6 </tspan>
<tspan x="10" y="8730">  │ │ └─┬ sshpk@1.13.0 </tspan>
<tspan x="10" y="8746">  │ │   ├── asn1@0.2.3 </tspan>
<tspan x="10" y="8762">  │ │   ├── assert-plus@1.0.0 </tspan>
<tspan x="10" y="8778">  │ │   ├── bcrypt-pbkdf@1.0.1 </tspan>
<tspan x="10" y="8794">  │ │   ├─┬ dashdash@1.14.1 </tspan>
<tspan x="10" y="8810">  │ │   │ └── assert-plus@1.0.0 </tspan>
<tspan x="10" y="8826">  │ │   ├── ecc-jsbn@0.1.1 </tspan>
<tspan x="10" y="8842">  │ │   ├─┬ getpass@0.1.6 </tspan>
<tspan x="10" y="8858">  │ │   │ └── assert-plus@1.0.0 </tspan>
<tspan x="10" y="8874">  │ │   ├── jodid25519@1.0.2 </tspan>
<tspan x="10" y="8890">  │ │   ├── jsbn@0.1.1 </tspan>
<tspan x="10" y="8906">  │ │   └── tweetnacl@0.14.5 </tspan>
<tspan x="10" y="8922">  │ ├── is-typedarray@1.0.0 </tspan>
<tspan x="10" y="8938">  │ ├── isstream@0.1.2 </tspan>
<tspan x="10" y="8954">  │ ├── json-stringify-safe@5.0.1 </tspan>
<tspan x="10" y="8970">  │ ├── mime-types@2.1.15 </tspan>
<tspan x="10" y="8986">  │ ├── oauth-sign@0.8.2 </tspan>
<tspan x="10" y="9002">  │ ├── performance-now@0.2.0 </tspan>
<tspan x="10" y="9018">  │ ├── safe-buffer@5.0.1 </tspan>
<tspan x="10" y="9034">  │ ├── stringstream@0.0.5 </tspan>
<tspan x="10" y="9050">  │ ├─┬ tough-cookie@2.3.2 </tspan>
<tspan x="10" y="9066">  │ │ └── punycode@1.4.1 </tspan>
<tspan x="10" y="9082">  │ ├── tunnel-agent@0.6.0 </tspan>
<tspan x="10" y="9098">  │ └── uuid@3.0.1 </tspan>
<tspan x="10" y="9114">  ├─┬ rimraf@2.5.4 </tspan>
<tspan x="10" y="9130">  │ └─┬ glob@7.1.1 </tspan>
<tspan x="10" y="9146">  │   ├── fs.realpath@1.0.0 </tspan>
<tspan x="10" y="9162">  │   ├─┬ inflight@1.0.6 </tspan>
<tspan x="10" y="9178">  │   │ └── wrappy@1.0.2 </tspan>
<tspan x="10" y="9194">  │   ├─┬ minimatch@3.0.3 </tspan>
<tspan x="10" y="9210">  │   │ └─┬ brace-expansion@1.1.7 </tspan>
<tspan x="10" y="9226">  │   │   ├── balanced-match@0.4.2 </tspan>
<tspan x="10" y="9242">  │   │   └── concat-map@0.0.1 </tspan>
<tspan x="10" y="9258">  │   ├── once@1.4.0 </tspan>
<tspan x="10" y="9274">  │   └── path-is-absolute@1.0.1 </tspan>
<tspan x="10" y="9290">  ├─┬ rss@1.2.2 </tspan>
<tspan x="10" y="9306">  │ ├─┬ mime-types@2.1.13 </tspan>
<tspan x="10" y="9322">  │ │ └── mime-db@1.25.0 </tspan>
<tspan x="10" y="9338">  │ └── xml@1.0.1 </tspan>
<tspan x="10" y="9354">  ├── semver@5.3.0 </tspan>
<tspan x="10" y="9370">  ├─┬ serve-favicon@2.4.2 </tspan>
<tspan x="10" y="9386">  │ └── ms@1.0.0 </tspan>
<tspan x="10" y="9402">  ├─┬ sitemap@1.12.0 </tspan>
<tspan x="10" y="9418">  │ └── url-join@1.1.0 </tspan>
<tspan x="10" y="9434">  ├─┬ socket.io@1.7.1 </tspan>
<tspan x="10" y="9450">  │ ├── debug@2.3.3 </tspan>
<tspan x="10" y="9466">  │ ├─┬ engine.io@1.8.1 </tspan>
<tspan x="10" y="9482">  │ │ ├── base64id@0.1.0 </tspan>
<tspan x="10" y="9498">  │ │ ├── debug@2.3.3 </tspan>
<tspan x="10" y="9514">  │ │ ├─┬ engine.io-parser@1.3.1 </tspan>
<tspan x="10" y="9530">  │ │ │ ├── after@0.8.1 </tspan>
<tspan x="10" y="9546">  │ │ │ ├── arraybuffer.slice@0.0.6 </tspan>
<tspan x="10" y="9562">  │ │ │ ├── base64-arraybuffer@0.1.5 </tspan>
<tspan x="10" y="9578">  │ │ │ ├── blob@0.0.4 </tspan>
<tspan x="10" y="9594">  │ │ │ ├─┬ has-binary@0.1.6 </tspan>
<tspan x="10" y="9610">  │ │ │ │ └── isarray@0.0.1 </tspan>
<tspan x="10" y="9626">  │ │ │ └── wtf-8@1.0.0 </tspan>
<tspan x="10" y="9642">  │ │ └─┬ ws@1.1.1 </tspan>
<tspan x="10" y="9658">  │ │   ├── options@0.0.6 </tspan>
<tspan x="10" y="9674">  │ │   └── ultron@1.0.2 </tspan>
<tspan x="10" y="9690">  │ ├─┬ has-binary@0.1.7 </tspan>
<tspan x="10" y="9706">  │ │ └── isarray@0.0.1 </tspan>
<tspan x="10" y="9722">  │ ├── object-assign@4.1.0 </tspan>
<tspan x="10" y="9738">  │ ├─┬ socket.io-adapter@0.5.0 </tspan>
<tspan x="10" y="9754">  │ │ └── debug@2.3.3 </tspan>
<tspan x="10" y="9770">  │ └─┬ socket.io-parser@2.3.1 </tspan>
<tspan x="10" y="9786">  │   ├── component-emitter@1.1.2 </tspan>
<tspan x="10" y="9802">  │   ├─┬ debug@2.2.0 </tspan>
<tspan x="10" y="9818">  │   │ └── ms@0.7.1 </tspan>
<tspan x="10" y="9834">  │   ├── isarray@0.0.1 </tspan>
<tspan x="10" y="9850">  │   └── json3@3.3.2 </tspan>
<tspan x="10" y="9866">  ├─┬ socket.io-client@1.7.1 </tspan>
<tspan x="10" y="9882">  │ ├── backo2@1.0.2 </tspan>
<tspan x="10" y="9898">  │ ├── component-bind@1.0.0 </tspan>
<tspan x="10" y="9914">  │ ├── component-emitter@1.2.1 </tspan>
<tspan x="10" y="9930">  │ ├── debug@2.3.3 </tspan>
<tspan x="10" y="9946">  │ ├─┬ engine.io-client@1.8.1 </tspan>
<tspan x="10" y="9962">  │ │ ├── component-emitter@1.2.1 </tspan>
<tspan x="10" y="9978">  │ │ ├── component-inherit@0.0.3 </tspan>
<tspan x="10" y="9994">  │ │ ├── debug@2.3.3 </tspan>
<tspan x="10" y="10010">  │ │ ├── has-cors@1.1.0 </tspan>
<tspan x="10" y="10026">  │ │ ├── parsejson@0.0.3 </tspan>
<tspan x="10" y="10042">  │ │ ├── parseqs@0.0.5 </tspan>
<tspan x="10" y="10058">  │ │ ├── xmlhttprequest-ssl@1.5.3 </tspan>
<tspan x="10" y="10074">  │ │ └── yeast@0.1.2 </tspan>
<tspan x="10" y="10090">  │ ├── indexof@0.0.1 </tspan>
<tspan x="10" y="10106">  │ ├── object-component@0.0.3 </tspan>
<tspan x="10" y="10122">  │ ├─┬ parseuri@0.0.5 </tspan>
<tspan x="10" y="10138">  │ │ └─┬ better-assert@1.0.2 </tspan>
<tspan x="10" y="10154">  │ │   └── callsite@1.0.0 </tspan>
<tspan x="10" y="10170">  │ └── to-array@0.1.4 </tspan>
<tspan x="10" y="10186">  ├─┬ socket.io-redis@2.0.0 </tspan>
<tspan x="10" y="10202">  │ ├── async@2.1.4 </tspan>
<tspan x="10" y="10218">  │ ├── debug@2.3.3 </tspan>
<tspan x="10" y="10234">  │ ├─┬ msgpack-js@0.3.0 </tspan>
<tspan x="10" y="10250">  │ │ └─┬ bops@0.0.7 </tspan>
<tspan x="10" y="10266">  │ │   ├── base64-js@0.0.2 </tspan>
<tspan x="10" y="10282">  │ │   └── to-utf8@0.0.1 </tspan>
<tspan x="10" y="10298">  │ ├── redis@2.6.3 </tspan>
<tspan x="10" y="10314">  │ └── uid2@0.0.3 </tspan>
<tspan x="10" y="10330">  ├── socketio-wildcard@0.3.0 </tspan>
<tspan x="10" y="10346">  ├── string@3.3.3 </tspan>
<tspan x="10" y="10362">  ├── templates.js@0.3.4 </tspan>
<tspan x="10" y="10378">  ├── toobusy-js@0.5.1 </tspan>
<tspan x="10" y="10394">  ├─┬ uglify-js@2.8.22 </tspan>
<tspan x="10" y="10410">  │ ├── uglify-to-browserify@1.0.2 </tspan>
<tspan x="10" y="10426">  │ └─┬ yargs@3.10.0 </tspan>
<tspan x="10" y="10442">  │   ├── camelcase@1.2.1 </tspan>
<tspan x="10" y="10458">  │   ├─┬ cliui@2.1.0 </tspan>
<tspan x="10" y="10474">  │   │ ├─┬ center-align@0.1.3 </tspan>
<tspan x="10" y="10490">  │   │ │ ├─┬ align-text@0.1.4 </tspan>
<tspan x="10" y="10506">  │   │ │ │ ├─┬ kind-of@3.1.0 </tspan>
<tspan x="10" y="10522">  │   │ │ │ │ └── is-buffer@1.1.5 </tspan>
<tspan x="10" y="10538">  │   │ │ │ ├── longest@1.0.1 </tspan>
<tspan x="10" y="10554">  │   │ │ │ └── repeat-string@1.6.1 </tspan>
<tspan x="10" y="10570">  │   │ │ └── lazy-cache@1.0.4 </tspan>
<tspan x="10" y="10586">  │   │ ├── right-align@0.1.3 </tspan>
<tspan x="10" y="10602">  │   │ └── wordwrap@0.0.2 </tspan>
<tspan x="10" y="10618">  │   └── window-size@0.1.0 </tspan>
<tspan x="10" y="10634">  ├── underscore@1.8.3 </tspan>
<tspan x="10" y="10650">  ├── underscore.deep@0.5.1 </tspan>
<tspan x="10" y="10666">  ├── validator@6.3.0 </tspan>
<tspan x="10" y="10682">  ├─┬ winston@2.3.1 </tspan>
<tspan x="10" y="10698">  │ ├── async@1.0.0 </tspan>
<tspan x="10" y="10714">  │ ├── colors@1.0.3 </tspan>
<tspan x="10" y="10730">  │ ├── cycle@1.0.3 </tspan>
<tspan x="10" y="10746">  │ ├── eyes@0.1.8 </tspan>
<tspan x="10" y="10762">  │ └── stack-trace@0.0.9 </tspan>
<tspan x="10" y="10778">  └── xregexp@3.1.1</tspan>
</text>
</svg>
